# xmcd
#
# Track frame offsets:
#	150
#	11542
#	25257
#	40995
#	54393
#	66451
#
# Disc length: 1063 seconds
#
# Revision: 0
# Processed by: cddbd v1.5.2PL0 Copyright (c) Steve Scherf et al.
# Submitted via: EasyCDDAExtractor 10.5.1.1
#
DISCID=4a042506
DTITLE=Twitty, Conway - Best Of (Vol 2)
DYEAR=2005
DGENRE=Country
TTITLE0=It's Only Make Believe
TTITLE1=The Games that Daddies Play
TTITLE2=Touch the Hand
TTITLE3=Danny Boy
TTITLE4=I Can't See Me Without You
TTITLE5=After All the Good is Gone
EXTD=
EXTT0=
EXTT1=
EXTT2=
EXTT3=
EXTT4=
EXTT5=
PLAYORDER=
